# xmcd
# 
# Track frame offsets:
#     182
#     17195
#     35705
#     47957
#     76367
#     90775
#     102167
#     119832
#     129045
#     144177
#     154200
#     169120
#     180582
#     191922
#     211435
# 
# Disc length: 2959
# 
# Revision: 2
# Processed by: cddbd v1.5.2PL0 Copyright (c) Steve Scherf et al.
# Submitted via: fre:ac v1.0.31
# 
DISCID=c90b8d0f
DTITLE=Various Artist - Basques cd1
DYEAR=2000
DGENRE=Folk
TTITLE0=irrintzina
TTITLE1=bakearen urtxoa
TTITLE2=haurtxo seaskan
TTITLE3=artzaintza
TTITLE4=zertako
TTITLE5=fandango salda
TTITLE6=pottoka
TTITLE7=gernikako arbola
TTITLE8=ez ahantz
TTITLE9=arrantzaleak
TTITLE10=artzamendi
TTITLE11=pilota
TTITLE12=boga boga
TTITLE13=donibane garazi
TTITLE14=har jauna
EXTD=YEAR: 2000
EXTT0=
EXTT1=
EXTT2=
EXTT3=
EXTT4=
EXTT5=
EXTT6=
EXTT7=
EXTT8=
EXTT9=
EXTT10=
EXTT11=
EXTT12=
EXTT13=
EXTT14=
PLAYORDER=
